<svg version="1.1" xmlns="http://www.w3.org/2000/svg" xmlns:xlink="http://www.w3.org/1999/xlink" x="0px" y="0px" viewBox="0 0 385.1 146.7" enable-background="new 0 0 385.1 146.7" xml:space="preserve" width="385.1"  height="146.7" ><defs><linearGradient id="SVGID_1_" gradientUnits="userSpaceOnUse" x1="352.6791" y1="1009.6045" x2="295.2191" y2="1050.1945" gradientTransform="matrix(1 0 0 1 0 -932)">
	<stop offset="0" stop-color="#1895FD"></stop>
	<stop offset="0.63" stop-color="#1869D2"></stop>
	<stop offset="1" stop-color="#1854BE"></stop>
</linearGradient><linearGradient id="SVGID_2_" gradientUnits="userSpaceOnUse" x1="777.2718" y1="-1119.2925" x2="730.3118" y2="-1066.9225" gradientTransform="matrix(-1 0 0 -1 1095.3599 -1012.01)">
	<stop offset="0" stop-color="#1895FD"></stop>
	<stop offset="0.63" stop-color="#1869D2"></stop>
	<stop offset="1" stop-color="#1854BE"></stop>
</linearGradient><linearGradient id="SVGID_3_" gradientUnits="userSpaceOnUse" x1="80.5672" y1="1077.661" x2="124.5572" y2="1012.131" gradientTransform="matrix(1 0 0 1 0 -932)">
	<stop offset="0.18" stop-color="#1895FD"></stop>
	<stop offset="0.7" stop-color="#1869D2"></stop>
	<stop offset="1" stop-color="#1854BE"></stop>
</linearGradient></defs>
<rect x="-0.1" y="22" fill="#E30513" width="36.4" height="21.7"></rect>
<linearGradient id="SVGID_1_" gradientUnits="userSpaceOnUse" x1="352.6791" y1="1009.6045" x2="295.2191" y2="1050.1945" gradientTransform="matrix(1 0 0 1 0 -932)">
	<stop offset="0" stop-color="#1895FD"></stop>
	<stop offset="0.63" stop-color="#1869D2"></stop>
	<stop offset="1" stop-color="#1854BE"></stop>
</linearGradient>
<path fill="url(&quot;#SVGID_1_&quot;)" d="M384.3,77.1v22.8c0,14.2-4.5,25.6-13.4,34.1c-3.2,3.1-6.8,5.7-10.8,7.7c-1.7,0.2-3.5,0.3-5.2,0.3
	c-17.4,0-32.7-11.3-37.9-27.8h0.1c3.4,7.3,10,11,19.8,11c15.2,0,22.8-8.7,22.8-26V77.5c0.1-4.8-0.7-9.5-2.3-14
	c-0.1-0.3-0.2-0.7-0.3-1c-5.2-16.6-20.6-27.9-37.9-27.8c-1.7,0-3.5,0.1-5.2,0.3c6.4-3.1,13.5-4.9,20.7-5c0.8,0,1.5,0,2.3,0h0.2
	c0.8,0,1.5,0,2.3,0c12.6,0.5,23,4.6,31.2,12.4c8.7,8.4,13.2,19.3,13.5,32.9C384.3,75.9,384.3,76.5,384.3,77.1z"></path>
<path fill="#1895FD" d="M219.7,31.7L215,52.8c-6.6-1.3-11.1-1.9-13.6-1.9c-6,0-10.9,1.9-14.6,5.8c-3.8,3.9-5.6,9-5.6,15.3v72.5
	h-24.5V71.9c0-12.6,4.3-22.9,12.8-30.8s19.1-11.8,31.8-11.8C207.4,29.5,213.6,30.3,219.7,31.7z"></path>
<path fill="#1895FD" d="M263.8,144.5h-24.5V31.3h24.5V144.5z"></path>
<path fill="#FFC103" d="M36.3,22V0.2h36.4V22H36.3z"></path>
<linearGradient id="SVGID_2_" gradientUnits="userSpaceOnUse" x1="777.2718" y1="-1119.2925" x2="730.3118" y2="-1066.9225" gradientTransform="matrix(-1 0 0 -1 1095.3599 -1012.01)">
	<stop offset="0" stop-color="#1895FD"></stop>
	<stop offset="0.63" stop-color="#1869D2"></stop>
	<stop offset="1" stop-color="#1854BE"></stop>
</linearGradient>
<path fill="url(&quot;#SVGID_2_&quot;)" d="M289.9,99.7V76.9c0-14.2,4.5-25.6,13.4-34.1c3.2-3.1,6.8-5.7,10.8-7.7c1.7-0.2,3.5-0.4,5.2-0.3
	c17.4,0,32.7,11.3,38,27.8H357c-3.4-7.3-10-11-19.8-11c-15.2,0-22.8,8.7-22.8,26v21.7c-0.1,4.8,0.7,9.5,2.3,13.9
	c0.1,0.3,0.2,0.7,0.3,1c5.2,16.6,20.6,27.8,37.9,27.8c1.7,0,3.5-0.1,5.2-0.4c-6.4,3.2-13.5,4.9-20.7,5.1c-0.8,0-1.5,0-2.3,0H337
	c-0.8,0-1.5,0-2.3,0c-12.6-0.5-23-4.6-31.2-12.4c-8.7-8.4-13.2-19.4-13.5-32.9C289.9,100.9,289.9,100.3,289.9,99.7z"></path>
<path fill="none" d="M98.2,81.2c-3-0.9-6.1-1.3-9.2-1.3H60.8v42.8h26.3c14,0,21.7-5.7,23.2-17c0.2-1.4,0.3-2.8,0.3-4.3
	c0.1-4.2-0.7-8.3-2.4-12.1C106.1,85.4,102.5,82.4,98.2,81.2z"></path>
<path fill="#1895FD" d="M113.3,69.1c11-6.5,16.6-15.8,16.6-28c0-11.8-4.2-21.5-12.5-29.3S97.8,0.2,83.4,0.2H72.7V22l10.7-0.1
	c14.6,0,21.9,6.4,21.9,19.2c0,13-6.7,19.6-20,19.6H60.8v-0.1H36.3v84.8h50.8c10.3,0,19.1-2,26.4-5.9c0.1,0,0.1-0.1,0.2-0.1
	c3.3-1.8,6.3-3.9,8.9-6.5c8.3-8,12.5-18.2,12.5-30.6C135.1,87.2,127.8,76.1,113.3,69.1z M110.3,106.7c-1.5,11.3-9.2,17-23.2,17H60.8
	V80.9H89c3.1-0.1,6.2,0.4,9.2,1.3c4.3,1.3,7.8,4.2,9.8,8.2c1.8,3.8,2.6,7.9,2.4,12.1C110.5,103.9,110.5,105.3,110.3,106.7z"></path>
<linearGradient id="SVGID_3_" gradientUnits="userSpaceOnUse" x1="80.5672" y1="1077.661" x2="124.5572" y2="1012.131" gradientTransform="matrix(1 0 0 1 0 -932)">
	<stop offset="0.18" stop-color="#1895FD"></stop>
	<stop offset="0.7" stop-color="#1869D2"></stop>
	<stop offset="1" stop-color="#1854BE"></stop>
</linearGradient>
<path fill="url(&quot;#SVGID_3_&quot;)" d="M96.2,81.6c0.7,0.2,1.3,0.3,2,0.5c4.3,1.3,7.8,4.2,9.8,8.2c1.8,3.8,2.6,7.9,2.4,12.1
	c0,1.4-0.1,2.9-0.3,4.3c-1.5,11.3-9.2,17-23.2,17H60.8l-9.2,21.7H87c10.3,0,19.1-2,26.4-5.9c0.1,0,0.1-0.1,0.2-0.1
	c3.3-1.8,6.3-3.9,8.9-6.5c3.1-3,5.8-6.5,7.8-10.3l0,0c0.1-1.1,0.2-2.2,0.2-3.3C130.6,101.1,116,85.8,96.2,81.6L96.2,81.6z"></path>
</svg>