<?xml version="1.0" encoding="UTF-8"?>
<svg xmlns="http://www.w3.org/2000/svg" xmlns:xlink="http://www.w3.org/1999/xlink" version="1.1" viewBox="0 0 140.1 146.7">
  <defs>
    <style>
      .cls-1 {
        fill: none;
      }

      .cls-2 {
        fill: #e30513;
      }

      .cls-3 {
        fill: url(#linear-gradient);
      }

      .cls-4 {
        fill: #1895fd;
      }

      .cls-5 {
        fill: #ffc103;
      }
    </style>
    <linearGradient id="linear-gradient" x1="80.6" y1="-929.7" x2="124.6" y2="-864.1" gradientTransform="translate(0 -784) scale(1 -1)" gradientUnits="userSpaceOnUse">
      <stop offset=".2" stop-color="#1895fd"/>
      <stop offset=".7" stop-color="#1869d2"/>
      <stop offset="1" stop-color="#1854be"/>
    </linearGradient>
  </defs>
  <!-- Generator: Adobe Illustrator 28.7.8, SVG Export Plug-In . SVG Version: 1.2.0 Build 200)  -->
  <g>
    <g id="Layer_1">
      <rect class="cls-2" x="-.1" y="22" width="36.4" height="21.7"/>
      <path class="cls-5" d="M36.3,22V.2h36.4v21.8h-36.4Z"/>
      <path class="cls-1" d="M98.2,81.2c-3-.9-6.1-1.3-9.2-1.3h-28.2v42.8h26.3c14,0,21.7-5.7,23.2-17,.2-1.4.3-2.8.3-4.3,0-4.2-.7-8.3-2.4-12.1-2.1-3.9-5.7-6.9-10-8.1Z"/>
      <path class="cls-4" d="M113.3,69.1c11-6.5,16.6-15.8,16.6-28s-4.2-21.5-12.5-29.3S97.8.2,83.4.2h-10.7v21.8h10.7c14.6-.1,21.9,6.3,21.9,19.1s-6.7,19.6-20,19.6h-24.5c0,0-24.5,0-24.5,0v84.8h50.8c10.3,0,19.1-2,26.4-5.9,0,0,0-.1.2-.1,3.3-1.8,6.3-3.9,8.9-6.5,8.3-8,12.5-18.2,12.5-30.6s-7.3-26.2-21.8-33.2ZM110.3,106.7c-1.5,11.3-9.2,17-23.2,17h-26.3v-42.8h28.2c3.1,0,6.2.4,9.2,1.3,4.3,1.3,7.8,4.2,9.8,8.2,1.8,3.8,2.6,7.9,2.4,12.1,0,1.4,0,2.8,0,4.2Z"/>
      <path class="cls-3" d="M96.2,81.6c.7.2,1.3.3,2,.5,4.3,1.3,7.8,4.2,9.8,8.2,1.8,3.8,2.6,7.9,2.4,12.1,0,1.4,0,2.9-.3,4.3-1.5,11.3-9.2,17-23.2,17h-26.1l-9.2,21.7h35.4c10.3,0,19.1-2,26.4-5.9,0,0,0-.1.2-.1,3.3-1.8,6.3-3.9,8.9-6.5,3.1-3,5.8-6.5,7.8-10.3h0c.1-1.1.2-2.2.2-3.3.1-18.2-14.5-33.5-34.3-37.7h0Z"/>
    </g>
  </g>
</svg>