<svg xmlns:xlink="http://www.w3.org/1999/xlink" xmlns="http://www.w3.org/2000/svg" aria-hidden="true" data-nom="icone-planete" role="img"   fill="none" stroke-width="1.2" viewBox="-0.09999999999999998 -0.09999999999999998 24.2 24.2" class="m-icon" data-v-0e35c2a9="" width="1"  height="1" ><!----> <path stroke="#FFFFFF" stroke-linecap="round" stroke-linejoin="round" d="M1 12a11 11 0 1 0 22 0 11 11 0 0 0-22 0Z" fill="none" stroke-width="2px"></path> <path stroke="#FFFFFF" stroke-linecap="round" stroke-linejoin="round" d="M1.165 10.086h5.82a2.87 2.87 0 0 1 2.03.84l1.071 1.072a2.87 2.87 0 0 1 .116 3.936L8.9 17.401a2.87 2.87 0 0 0-.726 1.906v3.008M19.902 4.348h-5.548a2.152 2.152 0 1 0 0 4.304h.414a2.87 2.87 0 0 1 2.39 1.277l2.122 3.184a2.87 2.87 0 0 0 2.392 1.278h1.072" fill="none" stroke-width="2px"></path></svg>